<svg width="58" height="58" viewBox="0 0 58 58" fill="none" xmlns="http://www.w3.org/2000/svg">
<path d="M12.0833 13.2917C12.0833 11.0484 12.9745 8.89701 14.5607 7.31076C16.147 5.72452 18.2984 4.83337 20.5417 4.83337H29V21.75H20.5417C18.2984 21.75 16.147 20.8589 14.5607 19.2727C12.9745 17.6864 12.0833 15.535 12.0833 13.2917Z" stroke="#98D28B" stroke-width="2" stroke-linecap="round" stroke-linejoin="round"/>
<path d="M29 4.83337H37.4583C38.5691 4.83337 39.669 5.05216 40.6952 5.47723C41.7214 5.9023 42.6539 6.52533 43.4393 7.31076C44.2247 8.09619 44.8477 9.02863 45.2728 10.0548C45.6979 11.0811 45.9167 12.1809 45.9167 13.2917C45.9167 14.4025 45.6979 15.5024 45.2728 16.5286C44.8477 17.5548 44.2247 18.4872 43.4393 19.2727C42.6539 20.0581 41.7214 20.6811 40.6952 21.1062C39.669 21.5313 38.5691 21.75 37.4583 21.75H29V4.83337Z" stroke="#98D28B" stroke-width="2" stroke-linecap="round" stroke-linejoin="round"/>
<path d="M29 30.2083C29 29.0976 29.2188 27.9977 29.6439 26.9715C30.0689 25.9453 30.692 25.0128 31.4774 24.2274C32.2628 23.442 33.1953 22.8189 34.2215 22.3939C35.2477 21.9688 36.3476 21.75 37.4583 21.75C38.5691 21.75 39.669 21.9688 40.6952 22.3939C41.7214 22.8189 42.6539 23.442 43.4393 24.2274C44.2247 25.0128 44.8477 25.9453 45.2728 26.9715C45.6979 27.9977 45.9167 29.0976 45.9167 30.2083C45.9167 31.3191 45.6979 32.419 45.2728 33.4452C44.8477 34.4714 44.2247 35.4038 43.4393 36.1893C42.6539 36.9747 41.7214 37.5977 40.6952 38.0228C39.669 38.4479 38.5691 38.6667 37.4583 38.6667C36.3476 38.6667 35.2477 38.4479 34.2215 38.0228C33.1953 37.5977 32.2628 36.9747 31.4774 36.1893C30.692 35.4038 30.0689 34.4714 29.6439 33.4452C29.2188 32.419 29 31.3191 29 30.2083Z" stroke="#98D28B" stroke-width="2" stroke-linecap="round" stroke-linejoin="round"/>
<path d="M12.0833 47.125C12.0833 44.8817 12.9745 42.7303 14.5607 41.144C16.147 39.5578 18.2984 38.6666 20.5417 38.6666H29V47.125C29 49.3682 28.1089 51.5197 26.5226 53.1059C24.9364 54.6922 22.785 55.5833 20.5417 55.5833C18.2984 55.5833 16.147 54.6922 14.5607 53.1059C12.9745 51.5197 12.0833 49.3682 12.0833 47.125Z" stroke="#98D28B" stroke-width="2" stroke-linecap="round" stroke-linejoin="round"/>
<path d="M12.0833 30.2083C12.0833 27.965 12.9745 25.8136 14.5607 24.2274C16.147 22.6411 18.2984 21.75 20.5417 21.75H29V38.6667H20.5417C18.2984 38.6667 16.147 37.7755 14.5607 36.1893C12.9745 34.603 12.0833 32.4516 12.0833 30.2083Z" stroke="#98D28B" stroke-width="2" stroke-linecap="round" stroke-linejoin="round"/>
</svg>
