<svg width="38" height="58" viewBox="0 0 38 58" fill="none" xmlns="http://www.w3.org/2000/svg">
<path d="M19.973 0.00951321C19.805 0.0201494 19.6433 0.0771089 19.5059 0.174118C19.3685 0.271128 19.2608 0.404339 19.1949 0.558861C19.1289 0.713383 19.1073 0.883074 19.1325 1.04914C19.1576 1.2152 19.2285 1.37106 19.3372 1.49926C19.7187 1.94874 20.3126 3.10325 20.6287 4.41182C19.8966 5.32438 18.9647 6.05744 17.9046 6.55478C16.8445 7.05212 15.6842 7.30065 14.5129 7.28102C14.328 7.28 14.1472 7.33479 13.9941 7.43832C13.8411 7.54184 13.7231 7.68914 13.6556 7.86089C12.7401 10.2352 10.3043 12.1201 7.17109 12.7145C4.24489 12.9429 1.76553 14.8658 1.06803 17.5591C0.368727 20.2596 1.66744 23.0763 4.18677 24.4827C5.41803 25.1666 6.82355 25.4743 8.22865 25.3677C9.63374 25.261 10.9764 24.7445 12.0899 23.8827C14.4838 24.7581 17.0667 24.8614 19.4807 24.2143C19.3245 24.3956 19.1955 24.6622 19.0085 24.8307C18.0803 25.6644 16.5781 26.4909 13.3777 27.2956C9.83027 28.1855 7.34001 30.576 5.97045 33.4614C4.6009 36.3468 4.29938 39.7288 5.00595 42.799C5.05168 42.9994 5.16432 43.1784 5.32538 43.3065C5.48645 43.4347 5.68638 43.5043 5.89235 43.5041L8.17373 43.486V45.3309H7.4835C5.48548 45.3309 3.85073 46.9621 3.85073 48.9558C3.85073 49.6173 4.04327 50.2282 4.35569 50.7647H3.86345C1.99621 50.7647 0.290621 52.0206 0.00726501 53.7134L0 53.7353V58H34.5077L34.5113 57.1009C34.5149 56.5499 34.5077 54.8552 34.5077 54.79V54.7466C34.5149 54.482 34.5095 53.8475 34.5113 53.7225C34.5076 53.2618 34.3889 52.8093 34.166 52.4059C33.943 52.0024 33.6229 51.6608 33.2344 51.4118C32.4951 50.9388 31.596 50.7574 30.6515 50.7574H30.2828C30.6111 50.2105 30.7867 49.5861 30.7913 48.9487C30.7913 46.955 29.1548 45.3238 27.1586 45.3238H26.3412V43.4933H29.3564C29.5307 43.4932 29.7013 43.443 29.8479 43.3488C29.9944 43.2546 30.1107 43.1204 30.1829 42.9621C30.3736 42.5452 30.5371 42.1195 30.7114 41.699H30.7151C30.7659 41.699 30.8168 41.7171 30.8676 41.7171L36.3949 41.699C36.829 41.699 37.1996 41.3908 37.2813 40.9649C39.8497 27.8502 35.3378 12.276 26.8843 4.83052C26.8478 4.79627 26.8083 4.76529 26.7662 4.73804C25.4039 2.48157 23.1208 0.725423 20.2436 0.0330756C20.1556 0.00859379 20.0643 -0.0024159 19.973 0.000442224V0.00951321ZM21.7966 2.69187C25.1824 4.4318 27.0351 7.96062 26.0924 11.5782C25.7182 12.7853 27.5854 13.271 27.8488 12.0349C27.9124 11.7884 27.9542 11.5437 27.9977 11.2972C32.6568 20.2271 33.0128 31.8394 28.6934 41.699H9.27991C9.2129 41.6816 9.14389 41.673 9.07466 41.6735L6.73334 41.6917C6.31012 39.2014 6.53353 36.5082 7.60883 34.2409C8.78585 31.7615 10.8148 29.8094 13.8209 29.0536C17.1775 28.2108 19.0103 27.2721 20.2254 26.1792C21.4061 25.1171 21.9147 24.0259 22.7048 22.9838L23.9436 21.9742H23.9363C23.9508 21.9561 23.9726 21.9562 23.9854 21.9417C24.8409 21.1443 23.702 19.8393 22.7938 20.5751L22.7302 20.6275C19.9929 23.1504 14.9071 23.6833 11.3488 21.7295C11.1878 21.6412 11.0037 21.6036 10.8208 21.6218C10.6379 21.64 10.4649 21.7134 10.3246 21.8318C10.1843 21.9502 10.0833 22.1082 10.0349 22.2851C9.98653 22.462 9.99308 22.6494 10.0537 22.8225C8.50976 23.6 6.65523 23.7777 5.10222 22.9258C6.36588 22.2767 7.58006 21.5358 8.73499 20.7092C9.48516 20.1781 9.05649 18.9964 8.1374 19.0671C7.9657 19.0829 7.80168 19.1456 7.66333 19.2483C6.43908 20.1418 5.07498 20.9448 3.61824 21.6625C3.2127 21.1586 2.9302 20.5676 2.79307 19.9359C2.65594 19.3043 2.66793 18.6495 2.82811 18.0233C3.31672 16.1329 5.10041 14.6975 7.32548 14.5307C7.35817 14.5307 7.39087 14.5126 7.42175 14.5126C10.8983 13.8782 13.6647 11.7883 14.9888 8.97906C17.1757 8.88844 19.2609 8.1274 20.8775 6.76264C20.878 7.15161 20.8317 7.53916 20.7395 7.91709C20.3399 9.10786 22.1744 9.64434 22.4814 8.42639C22.8447 7.18669 22.7847 5.62438 22.4142 4.05119C22.278 3.47665 21.991 3.18304 21.7966 2.69187ZM30.3518 11.957C34.9382 19.5221 37.1887 30.4148 35.543 39.8974L31.4035 39.9156C34.6657 30.6903 34.2407 20.3975 30.3536 11.957H30.3518ZM16.9142 12.7201C15.7045 12.7835 15.7971 14.5941 17.0068 14.5325H18.8232C20.0511 14.5506 20.0511 12.7019 18.8232 12.7201H16.9142ZM9.99011 43.5185H24.5248V45.342H9.99011V43.5185ZM7.4835 47.1544H27.1549C28.1776 47.1544 28.9713 47.9464 28.9713 48.9668C28.9713 49.98 28.1867 50.7646 27.1731 50.7755H7.46171C7.22426 50.7758 6.98913 50.7291 6.7699 50.6381C6.55066 50.5471 6.35169 50.4136 6.18447 50.2454C6.01725 50.0772 5.8851 49.8777 5.79568 49.6582C5.70625 49.4388 5.66133 49.2038 5.66349 48.9668C5.66349 47.9464 6.45725 47.1544 7.47987 47.1544H7.4835ZM30.6515 52.5879C31.3453 52.5879 31.923 52.7474 32.2499 52.9559C32.5787 53.1643 32.6949 53.3364 32.6949 53.7406V54.7502L32.6913 54.7683V54.7864L32.6949 56.2093H30.5316C30.5316 55.2215 30.557 54.9424 30.5407 54.3406C30.5262 53.7607 30.2101 53.1806 29.6143 52.5988H30.6515V52.5879ZM3.86345 52.6061H27.1259C27.7017 53.2549 27.9106 53.8839 27.9342 54.4911C27.9578 55.0729 27.9124 55.4825 27.9087 56.2166H1.81638L1.82002 54.6486C1.81638 54.5036 1.81638 54.5309 1.81638 54.6269V54.1975C1.81638 53.3855 2.63921 52.6061 3.86345 52.6061Z" fill="#98D28B"/>
</svg>
