<svg width="175" height="30" viewBox="0 0 175 30" fill="none" xmlns="http://www.w3.org/2000/svg">
<path d="M58.788 4.06048L58.6231 23.8967L53.7447 23.8561L45.6882 6.35755L44.8161 6.3503L44.6712 23.7807L42.1495 23.7597L42.3145 3.92352L47.1929 3.96408L55.2494 21.4626L56.1214 21.4699L56.2663 4.03951L58.788 4.06048Z" fill="white"/>
<path d="M74.1717 16.2654L74.1541 18.3882C74.1194 22.563 71.3697 24.4508 68.2117 24.4245L66.5855 24.411C63.4275 24.3847 60.7097 22.4279 60.7443 18.2767L60.7619 16.1539C60.7966 11.9791 63.5463 10.0914 66.7043 10.1176L68.3305 10.1311C71.4885 10.1574 74.2063 12.1142 74.1717 16.2654ZM71.6463 16.6926C71.6673 14.1688 70.6672 12.5565 67.4856 12.5301C64.304 12.5036 63.2771 14.1227 63.2563 16.6228L63.2461 17.8493C63.2251 20.3731 64.2252 21.9854 67.4068 22.0118C70.5884 22.0383 71.6153 20.4192 71.6361 17.9191L71.6463 16.6926Z" fill="white"/>
<path d="M88.5812 3.86002L88.4126 24.1443L85.8909 24.1234L85.9109 21.7176C85.0251 23.3614 83.1062 24.5484 81.3386 24.5337C78.1099 24.5069 75.4629 22.5506 75.4974 18.3994L75.515 16.2766C75.5497 12.1019 78.2287 10.2135 81.4574 10.2403C83.225 10.255 85.124 11.4738 85.9822 13.1321L86.0593 3.86264L88.581 3.8836L88.5812 3.86002ZM85.944 17.7315L85.9491 17.1182C85.9777 13.6746 83.6292 12.6644 81.9559 12.6505C79.2457 12.6279 78.0302 14.2454 78.0095 16.7456L77.9993 17.972C77.9783 20.4958 79.1669 22.1097 81.8771 22.1322C83.5504 22.1461 85.9156 21.1515 85.944 17.7315Z" fill="white"/>
<path d="M103.536 16.5096L103.523 18.0427L92.541 17.9514L92.5398 18.0929C92.5189 20.6166 93.5896 22.2295 96.7712 22.256C99.1279 22.2756 100.29 21.3889 100.75 19.9067L103.366 19.9284C102.844 23.2028 100.333 24.6916 97.5525 24.6685L95.9263 24.6549C92.6269 24.6275 90.0504 22.6955 90.0851 18.5207L90.1027 16.3979C90.1374 12.2231 93.17 10.3377 96.328 10.3639L97.3885 10.3727C100.547 10.399 103.547 12.3582 103.513 16.5094L103.536 16.5096ZM92.629 15.8764L101.066 15.9465C100.87 13.9871 99.8668 12.7757 96.8738 12.7509C93.8807 12.726 92.8809 13.9206 92.629 15.8764Z" fill="white"/>
<path d="M129.27 25.4512L126.744 23.1185C125.32 24.2861 123.5 24.8843 121.426 24.867L119.14 24.848C114.403 24.8086 110.824 21.5473 110.876 15.3677L110.891 13.4572C110.943 7.27754 114.576 4.07618 119.313 4.11556L121.599 4.13457C126.334 4.33906 129.914 7.52961 129.863 13.6149L129.847 15.5254C129.828 17.8369 129.317 19.7433 128.409 21.2218L130.982 23.6255L129.27 25.4748L129.27 25.4512ZM124.709 21.191L122.067 18.7159L123.779 16.8902L126.422 19.3418C127.068 18.1677 127.339 16.7783 127.351 15.2688L127.363 13.8064C127.395 9.98541 125.75 6.55147 120.448 6.50739C115.145 6.4633 113.443 9.86942 113.411 13.6904L113.399 15.1528C113.366 19.1153 115.061 22.243 120.316 22.2867C122.225 22.3026 123.643 21.8898 124.709 21.2146L124.709 21.191Z" fill="white"/>
<path d="M144.45 11.1886L144.338 24.6093L141.981 24.5897L142 22.3726C141.044 23.9214 138.961 25.0127 137.264 24.9986C134.954 24.9794 132.232 23.5887 132.267 19.4139L132.336 11.0879L134.858 11.1089L134.792 18.9867C134.771 21.5105 135.776 22.5803 138.109 22.5997C139.499 22.6112 141.865 21.6166 141.893 18.1966L141.951 11.1914L144.473 11.2124L144.45 11.1886Z" fill="white"/>
<path d="M159.556 16.9753L159.539 19.0981C159.504 23.2729 156.825 25.1612 153.596 25.1344C151.829 25.1197 149.93 23.9009 149.071 22.2426L149.051 24.6484L146.53 24.6274L146.698 4.34314L149.22 4.3641L149.143 13.6336C150.029 11.9898 151.948 10.8027 153.715 10.8174C156.944 10.8443 159.591 12.8005 159.556 16.9517L159.556 16.9753ZM157.031 17.4025C157.052 14.8787 155.863 13.2648 153.153 13.2423C151.48 13.2284 149.114 14.223 149.086 17.6431L149.081 18.2563C149.052 21.6999 151.401 22.7101 153.074 22.7241C155.784 22.7466 157 21.1291 157.021 18.629L157.031 17.4025Z" fill="white"/>
<path d="M174.168 17.0969L174.155 18.63L163.173 18.5387L163.172 18.6802C163.151 21.2039 164.221 22.8168 167.403 22.8433C169.76 22.8629 170.922 21.9762 171.382 20.4939L173.998 20.5157C173.476 23.7901 170.965 25.2789 168.184 25.2557L166.558 25.2422C163.259 25.2148 160.682 23.2827 160.717 19.1079L160.735 16.9852C160.769 12.8104 163.802 10.925 166.96 10.9512L168.02 10.96C171.178 10.9863 174.179 12.9454 174.144 17.0967L174.168 17.0969ZM163.261 16.4636L171.698 16.5338C171.502 14.5743 170.499 13.363 167.506 13.3381C164.513 13.3132 163.513 14.5079 163.261 16.4636Z" fill="white"/>
<path d="M29.0634 7.42227C29.0634 7.42227 29.0636 7.39869 29.0638 7.3751C29.0642 7.32793 29.041 7.28056 29.0178 7.23319C29.0178 7.23319 29.0178 7.23319 29.018 7.2096C29.0184 7.16243 28.9716 7.11486 28.9485 7.0675C28.9485 7.0675 28.9487 7.04391 28.9253 7.02013C28.9021 6.97276 28.8787 6.94897 28.8318 6.92499C28.8318 6.92499 28.8318 6.925 28.8084 6.90122C28.7617 6.85365 28.7148 6.82967 28.668 6.78211C28.668 6.78211 28.668 6.78211 28.6444 6.78191C28.6209 6.78172 28.5977 6.73435 28.5506 6.73396L15.9481 0.236825C15.6664 0.0929555 15.3129 0.0900165 15.0289 0.229184L10.7927 2.31688C10.3481 1.93578 9.78421 1.7188 9.1479 1.71351C7.73385 1.70175 6.56945 2.84789 6.55769 4.26307C6.54592 5.67826 7.69111 6.84359 9.10515 6.85535C10.5192 6.8671 11.6836 5.72097 11.6954 4.30578C11.6957 4.25861 11.6961 4.21144 11.6965 4.16427L15.4594 2.3085L25.7855 7.6309L14.8991 13.0128C14.5442 13.175 14.3291 13.527 14.3258 13.928L14.248 23.2918L3.61336 6.88045C3.35726 6.50091 2.91084 6.33209 2.46208 6.4463C2.03669 6.5843 1.72718 6.95913 1.72326 7.43085L1.63678 17.8325C0.714322 18.2258 0.0705616 19.1168 0.0617375 20.1782C0.0499721 21.5934 1.19517 22.7587 2.60922 22.7704C4.02326 22.7822 5.18766 21.6361 5.19942 20.2209C5.20825 19.1595 4.57957 18.2343 3.66358 17.8493L3.72182 10.8441L14.3564 27.2555C14.5426 27.5401 14.871 27.7315 15.2009 27.7343C15.2952 27.7351 15.3894 27.7358 15.5077 27.6896C15.9331 27.5517 16.2426 27.1768 16.2465 26.7051L16.3475 14.5581L26.9973 9.29214L26.9103 19.7645L23.242 21.5739C22.7974 21.1928 22.2335 20.9758 21.5972 20.9705C20.1832 20.9587 19.0187 22.1049 19.007 23.5201C18.9952 24.9352 20.1404 26.1006 21.5545 26.1123C22.9685 26.1241 24.1329 24.978 24.1447 23.5628C24.1451 23.5156 24.1455 23.4684 24.1459 23.4213L28.382 21.3336C28.7369 21.1714 28.952 20.8194 28.9553 20.4184L29.0616 7.63455C29.0616 7.63455 29.0626 7.51662 29.0632 7.44586L29.0634 7.42227ZM9.09552 5.18052C8.57703 5.17621 8.15633 4.74812 8.16064 4.22922C8.16496 3.71032 8.59272 3.2893 9.1112 3.29361C9.62969 3.29792 10.0504 3.72599 10.046 4.2449C10.0417 4.7638 9.614 5.18483 9.09552 5.18052ZM21.5918 24.4615C21.0733 24.4572 20.6526 24.0291 20.6569 23.5102C20.6612 22.9913 21.089 22.5703 21.6074 22.5746C22.1259 22.5789 22.5466 23.007 22.5423 23.5259C22.538 24.0448 22.1102 24.4658 21.5918 24.4615Z" fill="white"/>
</svg>
