<svg width="39" height="38" viewBox="0 0 39 38" fill="none" xmlns="http://www.w3.org/2000/svg">
<path d="M38.9455 9.94598C38.9455 9.94598 38.9458 9.91437 38.9461 9.88277C38.9466 9.81955 38.9155 9.75607 38.8845 9.6926C38.8845 9.6926 38.8845 9.6926 38.8847 9.661C38.8852 9.59779 38.8226 9.53404 38.7916 9.47057C38.7916 9.47057 38.7918 9.43896 38.7605 9.40709C38.7295 9.34362 38.6981 9.31175 38.6352 9.27961C38.6352 9.27961 38.6352 9.27962 38.6039 9.24775C38.5413 9.18401 38.4784 9.15188 38.4158 9.08815C38.4158 9.08815 38.4157 9.08815 38.3841 9.08788C38.3526 9.08762 38.3215 9.02414 38.2584 9.02362L21.3708 0.31735C20.9934 0.124562 20.5197 0.120624 20.1391 0.30711L14.4625 3.10466C13.8667 2.59398 13.1111 2.30322 12.2584 2.29613C10.3636 2.28038 8.80328 3.81622 8.78751 5.71259C8.77175 7.60896 10.3063 9.17053 12.2012 9.18629C14.096 9.20204 15.6563 7.6662 15.6721 5.76983C15.6726 5.70661 15.6731 5.64341 15.6737 5.5802L20.716 3.09344L34.5532 10.2255L19.9651 17.4374C19.4895 17.6547 19.2014 18.1264 19.1969 18.6637L19.0926 31.2114L4.84206 9.21993C4.49888 8.71134 3.90067 8.48512 3.29932 8.63816C2.72929 8.82307 2.31455 9.32535 2.30929 9.95748L2.19341 23.8958C0.957298 24.4229 0.0946474 25.6168 0.082823 27.0391C0.0670572 28.9355 1.60165 30.497 3.49649 30.5128C5.39133 30.5286 6.95165 28.9927 6.96741 27.0963C6.97924 25.6741 6.13679 24.4343 4.90935 23.9184L4.98739 14.5313L19.238 36.5228C19.4874 36.9042 19.9275 37.1607 20.3696 37.1644C20.4959 37.1655 20.6222 37.1665 20.7806 37.1046C21.3507 36.9197 21.7655 36.4174 21.7707 35.7853L21.906 19.5081L36.177 12.4516L36.0603 26.4848L31.1448 28.9094C30.549 28.3987 29.7934 28.1079 28.9408 28.1008C27.0459 28.0851 25.4855 29.6209 25.4698 31.5173C25.454 33.4137 26.9886 34.9752 28.8835 34.991C30.7783 35.0067 32.3386 33.4709 32.3544 31.5745C32.3549 31.5113 32.3554 31.4481 32.356 31.3849L38.0325 28.5873C38.5081 28.37 38.7963 27.8983 38.8007 27.361L38.9432 10.2304C38.9432 10.2304 38.9445 10.0724 38.9453 9.97758L38.9455 9.94598ZM12.1882 6.94199C11.4935 6.93621 10.9297 6.36257 10.9355 5.66723C10.9413 4.97189 11.5145 4.40771 12.2093 4.41349C12.904 4.41927 13.4677 4.9929 13.462 5.68823C13.4562 6.38357 12.883 6.94776 12.1882 6.94199ZM28.9334 32.7788C28.2387 32.7731 27.6749 32.1994 27.6807 31.5041C27.6865 30.8087 28.2597 30.2445 28.9544 30.2503C29.6492 30.2561 30.2129 30.8297 30.2071 31.5251C30.2014 32.2204 29.6282 32.7846 28.9334 32.7788Z" fill="#98D28B"/>
</svg>
